<svg width="152" height="152" viewBox="0 0 152 152" fill="none" xmlns="http://www.w3.org/2000/svg">
<line x1="59.3587" y1="59.5107" x2="59.3587" y2="1.00001" stroke="black"/>
<line x1="92.5336" y1="59.5107" x2="92.5336" y2="1.00001" stroke="black"/>
<line x1="58.7886" y1="0.5" x2="93.0336" y2="0.5" stroke="black"/>
<line x1="92.4635" y1="92.4894" x2="92.4635" y2="151" stroke="black"/>
<line x1="59.2886" y1="92.4894" x2="59.2886" y2="151" stroke="black"/>
<line x1="93.0336" y1="151.5" x2="58.7886" y2="151.5" stroke="black"/>
<line y1="-0.5" x2="58.8586" y2="-0.5" transform="matrix(0.999986 -0.00535388 0.00541777 0.999985 91.9635 59.8257)" stroke="black"/>
<line y1="-0.5" x2="58.8586" y2="-0.5" transform="matrix(0.999986 -0.00535388 0.00541777 0.999985 92.1421 92.804)" stroke="black"/>
<line y1="-0.5" x2="34.0425" y2="-0.5" transform="matrix(0.00541781 0.999985 -0.999986 0.00535392 150.816 58.4468)" stroke="black"/>
<line y1="-0.5" x2="58.8586" y2="-0.5" transform="matrix(-0.999986 0.0053538 -0.00541768 -0.999985 60.0365 91.4251)" stroke="black"/>
<line y1="-0.5" x2="58.8586" y2="-0.5" transform="matrix(-0.999986 0.0053538 -0.00541768 -0.999985 59.8579 58.4468)" stroke="black"/>
<line y1="-0.5" x2="34.0425" y2="-0.5" transform="matrix(-0.00541772 -0.999985 0.999986 -0.00535383 1.18442 92.804)" stroke="black"/>
</svg>
